<svg xmlns="http://www.w3.org/2000/svg" width="1200" height="675" viewBox="0 0 1200 675" role="img" aria-label="Telegram post image">
  <defs>
    <linearGradient id="bg" x1="0" y1="0" x2="1" y2="1">
      <stop offset="0" stop-color="#04101f"/>
      <stop offset="0.58" stop-color="#082134"/>
      <stop offset="1" stop-color="#0d1021"/>
    </linearGradient>
    <linearGradient id="accent" x1="0" y1="0" x2="1" y2="0">
      <stop offset="0" stop-color="#67e8f9"/>
      <stop offset="1" stop-color="#facc15"/>
    </linearGradient>
  </defs>
  <rect width="1200" height="675" fill="url(#bg)"/>
  <rect x="70" y="64" width="1060" height="548" rx="34" fill="#07111f" opacity="0.76" stroke="#155e75" stroke-width="2"/>
  <rect x="98" y="96" width="220" height="44" rx="22" fill="url(#accent)" opacity="0.95"/>
  <text x="126" y="125" fill="#06111f" font-family="Inter, Arial, sans-serif" font-size="20" font-weight="800">POST IMAGE</text>
  <text x="98" y="196" fill="#dff8ff" font-family="Inter, Arial, sans-serif" font-size="34" font-weight="800">Коммерческая недвижимость</text>
  <foreignObject x="98" y="226" width="760" height="190">
    <div xmlns="http://www.w3.org/1999/xhtml" style="font-family:Inter,Arial,sans-serif;color:#ffffff;font-size:50px;font-weight:850;line-height:1.12;letter-spacing:0">
      Черновик для проверки: Коммерческая недвижимость
    </div>
  </foreignObject>
  <text x="100" y="475" fill="#93a8bc" font-family="Inter, Arial, sans-serif" font-size="24">office / warehouse / business</text>
  <g transform="translate(875 232)">
    <rect x="0" y="0" width="190" height="190" rx="42" fill="#0b1727" stroke="#155e75" stroke-width="2"/>
    <path d="M45 122 L84 82 L113 110 L151 61" fill="none" stroke="#67e8f9" stroke-width="13" stroke-linecap="round" stroke-linejoin="round"/>
    <circle cx="45" cy="122" r="8" fill="#facc15"/>
    <circle cx="84" cy="82" r="8" fill="#facc15"/>
    <circle cx="113" cy="110" r="8" fill="#facc15"/>
    <circle cx="151" cy="61" r="8" fill="#facc15"/>
  </g>
  <text x="98" y="555" fill="#45d7ff" font-family="Inter, Arial, sans-serif" font-size="18">dry-run ready asset / clean-draft-13</text>
</svg>
